PathFileType	4	(X/Y/Z)	/Users/itak/Documents/Research/Walk-IL/dataset/trc/00123_00007.trc
DataRate	CameraRate	NumFrames	NumMarkers	Units	OrigDataRate	OrigDataStartFrame	OrigNumFrames
100.000000	100.000000	4	53	mm	100.000000	90	727
Frame#	Time	RPSI			LPSI			L3			STRN			T10			C7			CLAV			RBAK			LBAK			LSHO			LUPA			LAEL			LAOL			LWTS			LWPS			LFRA			LIFD			LHPS			LHTS			RSHO			RUPA			RAEL			RAOL			RWTS			RWPS			RFRA			RIFD			RHTS			RHPS			RBHD			LFHD			RFHD			LBHD			LHIP			RHIP			RASI			LASI			LKNE			LTHI			LANK			LTIP			LTOE			LMT1			LMT5			LHEE			RKNE			RTHI			RANK			RTIP			RTOE			RMT1			RMT5			RHEE			
		X1	Y1	Z1	X2	Y2	Z2	X3	Y3	Z3	X4	Y4	Z4	X5	Y5	Z5	X6	Y6	Z6	X7	Y7	Z7	X8	Y8	Z8	X9	Y9	Z9	X10	Y10	Z10	X11	Y11	Z11	X12	Y12	Z12	X13	Y13	Z13	X14	Y14	Z14	X15	Y15	Z15	X16	Y16	Z16	X17	Y17	Z17	X18	Y18	Z18	X19	Y19	Z19	X20	Y20	Z20	X21	Y21	Z21	X22	Y22	Z22	X23	Y23	Z23	X24	Y24	Z24	X25	Y25	Z25	X26	Y26	Z26	X27	Y27	Z27	X28	Y28	Z28	X29	Y29	Z29	X30	Y30	Z30	X31	Y31	Z31	X32	Y32	Z32	X33	Y33	Z33	X34	Y34	Z34	X35	Y35	Z35	X36	Y36	Z36	X37	Y37	Z37	X38	Y38	Z38	X39	Y39	Z39	X40	Y40	Z40	X41	Y41	Z41	X42	Y42	Z42	X43	Y43	Z43	X44	Y44	Z44	X45	Y45	Z45	X46	Y46	Z46	X47	Y47	Z47	X48	Y48	Z48	X49	Y49	Z49	X50	Y50	Z50	X51	Y51	Z51	X52	Y52	Z52	X53	Y53	Z53	

91	0.9	20.17261123657227	1125.65673828125	1237.680053710938	12.55784797668457	1124.496337890625	1102.708374023438	10.71334743499756	1163.04638671875	1170.009643554688	245.4908599853516	1349.797485351562	1162.68115234375	-9.753746032714844	1316.835815429688	1177.092407226562	45.15033340454102	1606.417114257812	1160.554809570312	219.9867706298828	1487.133422851562	1158.111572265625	-15.98299121856689	1428.551635742188	1254.564453125	30.55359077453613	1587.0791015625	1059.79443359375	111.8768692016602	1566.168823242188	985.8901977539062	74.6573486328125	1437.965576171875	917.1491088867188	64.68930053710938	1218.78125	895.39599609375	-3.170745372772217	1213.600219726562	952.0335083007812	155.1475830078125	960.04296875	946.8614501953125	72.91870880126953	935.1373291015625	919.6572265625	75.32473754882812	1101.62060546875	894.1285400390625	162.26123046875	768.259033203125	976.4490356445312	100.1795272827148	859.4121704101562	922.3043212890625	168.0866241455078	869.8531494140625	939.1656494140625	113.3279571533203	1585.844482421875	1339.212524414062	100.588005065918	1514.552612304688	1407.59765625	86.365478515625	1219.252197265625	1432.2666015625	72.29043579101562	1215.677124023438	1337.916625976562	217.7880554199219	969.3267211914062	1414.144775390625	144.0626068115234	957.1272583007812	1449.407348632812	108.0364456176758	1145.682006835938	1447.211059570312	228.351318359375	774.0408935546875	1396.325927734375	241.0821380615234	859.26123046875	1419.767700195312	169.1500244140625	851.262939453125	1447.540283203125	119.6908264160156	1779.367065429688	1231.923095703125	242.3979034423828	1819.553955078125	1050.318237304688	278.1451110839844	1839.286865234375	1174.453857421875	74.94356536865234	1762.77587890625	1104.986450195312	105.4103775024414	1033.184814453125	993.14404296875	142.9173889160156	1028.904296875	1355.365844726562	228.2855224609375	1095.272338867188	1303.028564453125	212.9571838378906	1096.384643554688	1036.849609375	316.1562194824219	561.216064453125	1046.15478515625	238.4708404541016	695.1445922851562	1015.897155761719	86.72200012207031	84.54705810546875	1062.8017578125	160.5234069824219	329.0906066894531	1032.849975585938	312.7703247070312	53.60433959960938	1084.004760742188	243.3540344238281	60.39152145385742	1130.304321289062	201.5203857421875	60.21797180175781	1023.547302246094	27.91457748413086	97.71391296386719	1133.578857421875	112.5726318359375	535.1124267578125	1317.374633789062	153.5498352050781	813.9157104492188	1347.819213867188	-44.14374160766602	31.74981498718262	1291.79638671875	74.62261199951172	401.6304321289062	1327.414184570312	188.9974060058594	56.92749786376953	1248.4033203125	131.4322662353516	45.56220245361328	1202.925537109375	90.11822509765625	41.63100433349609	1319.271606445312	-100.7895812988281	35.00879287719727	1239.9833984375	
92	0.91	23.96979904174805	1125.31787109375	1237.2529296875	15.76995658874512	1124.342041015625	1102.349731445312	14.24792957305908	1162.87109375	1169.72265625	249.5315246582031	1349.291015625	1161.340454101562	-5.612452030181885	1316.622192382812	1177.176513671875	49.49616241455078	1606.140502929688	1160.183959960938	224.1571044921875	1486.648315429688	1156.774658203125	-11.241135597229	1428.364135742188	1254.703247070312	34.24024963378906	1586.792236328125	1059.526489257812	115.1587829589844	1565.744873046875	985.1503295898438	77.06949615478516	1437.671142578125	916.6712036132812	65.83694458007812	1218.564208984375	895.0337524414062	-1.700785875320435	1213.74072265625	952.0538940429688	155.3559112548828	959.3995361328125	946.1883544921875	72.82295989990234	934.8720092773438	919.4200439453125	75.91920471191406	1101.334228515625	893.7728271484375	161.6227264404297	767.5911865234375	975.9332275390625	99.78214263916016	859.0213012695312	921.981689453125	167.8259124755859	869.1536865234375	938.5167846679688	118.6256713867188	1585.66796875	1338.401000976562	106.3018035888672	1514.34912109375	1406.874755859375	93.17323303222656	1219.04931640625	1432.137573242188	78.54429626464844	1215.269409179688	1337.89990234375	226.2344207763672	970.097412109375	1413.494140625	152.8042755126953	957.27392578125	1449.159912109375	115.3545913696289	1145.591918945312	1447.057739257812	238.3759155273438	774.8702392578125	1396.024047851562	250.4684600830078	860.20556640625	1419.244262695312	178.7576446533203	852.1701049804688	1447.187377929688	124.9185180664062	1779.261352539062	1230.769287109375	246.2657470703125	1818.5673828125	1048.155029296875	283.022216796875	1838.634643554688	1171.806518554688	79.11019897460938	1762.4267578125	1104.23046875	108.4332427978516	1033.161743164062	992.3286743164062	147.0873413085938	1028.327392578125	1354.349365234375	232.2738494873047	1094.639526367188	1301.892333984375	216.0824432373047	1096.0703125	1035.817016601562	323.0227966308594	563.0987548828125	1043.785522460938	243.7064208984375	696.2509155273438	1014.105834960938	102.7332305908203	81.99197387695312	1063.418334960938	171.4742889404297	327.90576171875	1032.072631835938	329.3650512695312	54.78002548217773	1082.998779296875	260.3055725097656	60.63129425048828	1129.773071289062	217.6129150390625	59.41164398193359	1023.316772460938	44.29996490478516	94.55038452148438	1134.607543945312	114.1204071044922	534.7171020507812	1316.827392578125	156.6541748046875	813.406005859375	1346.767456054688	-44.05648422241211	31.88100624084473	1291.616821289062	75.72222137451172	401.4454345703125	1326.898071289062	189.1933288574219	56.00088119506836	1248.24462890625	131.5526275634766	44.73571395874023	1202.7314453125	90.28727722167969	41.64236450195312	1319.339111328125	-100.6529846191406	35.23003387451172	1239.861938476562	
93	0.92	27.90304183959961	1124.929077148438	1236.791381835938	19.06147956848145	1124.12548828125	1101.953735351562	17.89931297302246	1162.657470703125	1169.40283203125	253.6859130859375	1348.732177734375	1159.9189453125	-1.339236259460449	1316.354614257812	1177.235473632812	53.96086120605469	1605.819946289062	1159.752685546875	228.4386749267578	1486.110717773438	1155.361206054688	-6.343031406402588	1428.130615234375	1254.81982421875	38.04689788818359	1586.444946289062	1059.205322265625	118.5378189086914	1565.25	984.3524169921875	79.60550689697266	1437.29296875	916.1618041992188	67.12654113769531	1218.268798828125	894.6677856445312	-0.06771084666252136	1213.796630859375	952.069580078125	155.5975189208984	958.6163330078125	945.4775390625	72.7303466796875	934.53125	919.1577758789062	76.60785675048828	1100.971313476562	893.40283203125	160.833740234375	766.7774658203125	975.3698120117188	99.3145751953125	858.5404052734375	921.6296997070312	167.5081481933594	868.3035888671875	937.8213500976562	124.0849761962891	1585.471069335938	1337.505249023438	112.1432418823242	1514.135986328125	1406.036010742188	100.1584777832031	1218.843017578125	1432.008911132812	84.85742950439453	1214.865478515625	1337.884521484375	235.0167541503906	970.986083984375	1412.675659179688	161.9324951171875	957.4644775390625	1448.809814453125	122.9080963134766	1145.508178710938	1446.89990234375	248.9211578369141	775.8541870117188	1395.454711914062	260.3010864257812	861.294921875	1418.478515625	188.9705505371094	853.2371826171875	1446.762084960938	130.2279052734375	1779.09912109375	1229.521850585938	250.1708374023438	1817.542358398438	1045.903686523438	287.9392395019531	1837.980834960938	1169.064331054688	83.36323547363281	1761.986450195312	1103.395751953125	111.5446929931641	1033.065673828125	991.4862670898438	151.4764709472656	1027.709716796875	1353.253540039062	236.4248809814453	1093.972290039062	1300.662963867188	219.3142700195312	1095.703979492188	1034.695556640625	329.7318420410156	564.8585205078125	1041.257934570312	248.8108367919922	697.2019653320312	1012.126708984375	119.5013732910156	79.16116333007812	1063.786865234375	182.7282257080078	326.4621887207031	1031.065551757812	346.6885070800781	56.07998657226562	1081.912109375	277.9283142089844	60.90822982788086	1129.094604492188	234.5071716308594	58.51946640014648	1022.929931640625	61.32763671875	90.93267059326172	1135.257446289062	115.7705001831055	534.2987670898438	1316.209106445312	159.9231567382812	812.8663940429688	1345.627197265625	-43.97339248657227	32.0308837890625	1291.413940429688	76.9024658203125	401.2505187988281	1326.306884765625	189.4271850585938	55.03690338134766	1248.026245117188	131.6985778808594	43.9395751953125	1202.5234375	90.45765686035156	41.67113494873047	1319.385009765625	-100.5111618041992	35.47381973266602	1239.705932617188	
94	0.93	31.96963882446289	1124.485473632812	1236.29248046875	22.4208869934082	1123.843994140625	1101.506713867188	21.66658973693848	1162.393798828125	1169.038330078125	257.9469604492188	1348.112548828125	1158.411254882812	3.058341503143311	1316.029296875	1177.2607421875	58.53443145751953	1605.4501953125	1159.258544921875	232.8275146484375	1485.513427734375	1153.861572265625	-1.289255619049072	1427.839599609375	1254.90869140625	41.96879959106445	1586.03125	1058.82861328125	121.999626159668	1564.679321289062	983.492431640625	82.25287628173828	1436.8232421875	915.6138916015625	68.56034851074219	1217.88525390625	894.2955322265625	1.728967905044556	1213.762329101562	952.08642578125	155.8854675292969	957.6896362304688	944.7227783203125	72.65185546875	934.1085815429688	918.8720092773438	77.39979553222656	1100.523193359375	893.0184326171875	159.9355773925781	765.8209228515625	974.747802734375	98.78618621826172	857.9627685546875	921.2471313476562	167.1438751220703	867.2992553710938	937.0748901367188	129.7102355957031	1585.236572265625	1336.519165039062	118.1334381103516	1513.898803710938	1405.08935546875	107.3284072875977	1218.617431640625	1431.879760742188	91.21995544433594	1214.451171875	1337.865356445312	244.1079864501953	971.9589233398438	1411.69091796875	171.4261169433594	957.6866455078125	1448.35791015625	130.7091064453125	1145.41455078125	1446.74072265625	259.9364013671875	776.968994140625	1394.612670898438	270.5424194335938	862.5051879882812	1417.461669921875	199.8187255859375	854.4429931640625	1446.3388671875	135.6224060058594	1778.868408203125	1228.182739257812	254.1193084716797	1816.487182617188	1043.55419921875	292.9031982421875	1837.312255859375	1166.234985351562	87.70171356201172	1761.454223632812	1102.484008789062	114.7357406616211	1032.882934570312	990.6204223632812	156.0605926513672	1027.048461914062	1352.086547851562	240.7281036376953	1093.265869140625	1299.349975585938	222.6574859619141	1095.278442382812	1033.48876953125	336.2599487304688	566.471923828125	1038.558837890625	253.7661743164062	697.9775390625	1009.957153320312	136.9402465820312	76.13722991943359	1063.896362304688	194.2311401367188	324.8001708984375	1029.83544921875	364.6337585449219	57.51642227172852	1080.705932617188	296.1309204101562	61.25412368774414	1128.2421875	252.0902557373047	57.5946159362793	1022.360595703125	78.94212341308594	86.97421264648438	1135.554321289062	117.5483245849609	533.8556518554688	1315.518432617188	163.3439025878906	812.2928466796875	1344.406005859375	-43.89207077026367	32.21150588989258	1291.196655273438	78.18131256103516	401.0405883789062	1325.642211914062	189.7109222412109	54.07468795776367	1247.756225585938	131.8741302490234	43.21060943603516	1202.321899414062	90.62042999267578	41.71163558959961	1319.406982421875	-100.3684768676758	35.73934173583984	1239.514770507812	
